{"title":"Comedy Nights with Kapil - Hrithik Roshan - 3rd November HQ 360p","uid":9146096,"size":332474509,"categoryP":"video","categoryS":"tv_shows","magnet":"?xt=urn:btih:d2d0cb20756c0ddbb5dfffa3bb0dc1ab8a82f34e&amp;dn=Comedy+Nights+with+Kapil+-+Hrithik+Roshan+-+3rd+November+HQ+360p&amp;tr=udp%3A%2F%2Ftracker.openbittorrent.com%3A80&amp;tr=udp%3A%2F%2Fopen.demonii.com%3A1337&amp;tr=udp%3A%2F%2Ftracker.coppersurfer.tk%3A6969&amp;tr=udp%3A%2F%2Fexodus.desync.com%3A6969","seeders":1,"leechers":0,"uploader":"Palash995","files":1,"time":1383598125,"description":" &lt;a href=&quot;http://s7.postimg.org/hnwkhm0q3/happydiwali19.gif&quot; rel=&quot;nofollow&quot; target=&quot;_NEW&quot;&gt;http://s7.postimg.org/hnwkhm0q3/happydiwali19.gif&lt;/a&gt;\n\nComedy Nights With Kapil\n\nSeason 1 Ep. 33\nReleased: 03/11/13\nRunning time: 1:05:03\n\nOn the occassion of Diwali, Kapil and his family members celebrate the festival with a bang. Krrish aka Hritik Roshan graces the show with his presence. Kapil's family members have a fun filled time with Hritik and dance with him. Hritik later, answers the question of his fans and fulfills their requests. Witness all the fun by seeing the entire epsiode.\n\nRenowned, actor-comedian Kapil Sharma makes his debut as a TV show producer with his new show Comedy Nights With Kapil. He will be seen multiple roles of an actor, scriptwriter and producer in his production debut. Already famous for his amazing comic timing and his talent to dig humor out of any situation, he is ready present everyday life in a fresh ad unique way.\n\nScreenshots:-\n &lt;a href=&quot;\nhttp://imageshack.us/a/img692/7773/4aec.png&quot; rel=&quot;nofollow&quot; target=&quot;_NEW&quot;&gt;\nhttp://imageshack.us/a/img692/7773/4aec.png&lt;/a&gt;\n &lt;a href=&quot;\nhttp://imageshack.us/a/img405/166/1bpy.png&quot; rel=&quot;nofollow&quot; target=&quot;_NEW&quot;&gt;\nhttp://imageshack.us/a/img405/166/1bpy.png&lt;/a&gt;\n &lt;a href=&quot;\nhttp://imageshack.us/a/img713/9482/jwp4.png&quot; rel=&quot;nofollow&quot; target=&quot;_NEW&quot;&gt;\nhttp://imageshack.us/a/img713/9482/jwp4.png&lt;/a&gt;\n &lt;a href=&quot;\nhttp://imageshack.us/a/img202/4606/2bf7.png&quot; rel=&quot;nofollow&quot; target=&quot;_NEW&quot;&gt;\nhttp://imageshack.us/a/img202/4606/2bf7.png&lt;/a&gt;\n &lt;a href=&quot;\nhttp://imageshack.us/a/img34/6956/qeft.png&quot; rel=&quot;nofollow&quot; target=&quot;_NEW&quot;&gt;\nhttp://imageshack.us/a/img34/6956/qeft.png&lt;/a&gt;\n\nMedia Info:-\n\nGeneral\nComplete name : Comedy Nights with Kapil - Hrithik Roshan - 3rd November HQ 360p {GreatPalash}.MP4\nFormat : MPEG-4\nFormat profile : Base Media / Version 2\nCodec ID : mp42\nFile size : 317 MiB\nDuration : 1h 5mn\nOverall bit rate mode : Variable\nOverall bit rate : 682 Kbps\nEncoded date : UTC 2013-11-03 17:36:11\nTagged date : UTC 2013-11-03 17:36:11\n\nVideo\nID : 1\nFormat : AVC\nFormat/Info : Advanced Video Codec\nFormat profile : &lt;a class=&quot;__cf_email__&quot; href=&quot;/cdn-cgi/l/email-protection&quot; data-cfemail=&quot;4c0e2d3f29202522290c007f627c&quot;&gt;[email&amp;#160;protected]&lt;/a&gt;&lt;script cf-hash='f9e31' type=&quot;text/javascript&quot;&gt;\n/* &lt;![CDATA[ */!function(){try{var t=&quot;currentScript&quot;in document?document.currentScript:function(){for(var t=document.getElementsByTagName(&quot;script&quot;),e=t.length;e--;)if(t[e].getAttribute(&quot;cf-hash&quot;))return t[e]}();if(t&amp;&amp;t.previousSibling){var e,r,n,i,c=t.previousSibling,a=c.getAttribute(&quot;data-cfemail&quot;);if(a){for(e=&quot;&quot;,r=parseInt(a.substr(0,2),16),n=2;a.length-n;n+=2)i=parseInt(a.substr(n,2),16)^r,e+=String.fromCharCode(i);e=document.createTextNode(e),c.parentNode.replaceChild(e,c)}}}catch(u){}}();/* ]]&gt; */&lt;/script&gt;\nFormat settings, CABAC : No\nFormat settings, ReFrames : 1 frame\nFormat settings, GOP : M=1, N=60\nCodec ID : avc1\nCodec ID/Info : Advanced Video Coding\nDuration : 1h 5mn\nBit rate : 583 Kbps\nMaximum bit rate : 1 335 Kbps\nWidth : 640 pixels\nHeight : 360 pixels\nDisplay aspect ratio : 16:9\nFrame rate mode : Constant\nFrame rate : 25.000 fps\nColor space : YUV\nChroma subsampling : 4:2:0\nBit depth : 8 bits\nScan type : Progressive\nBits/(Pixel*Frame) : 0.101\nStream size : 271 MiB (86%)\nTagged date : UTC 2013-11-03 17:37:53\n\nAudio\nID : 2\nFormat : AAC\nFormat/Info : Advanced Audio Codec\nFormat profile : LC\nCodec ID : 40\nDuration : 1h 5mn\nBit rate mode : Variable\nBit rate : 96.0 Kbps\nMaximum bit rate : 102 Kbps\nChannel(s) : 2 channels\nChannel positions : Front: L R\nSampling rate : 44.1 KHz\nCompression mode : Lossy\nStream size : 44.7 MiB (14%)\nEncoded date : UTC 2013-11-03 17:36:48\nTagged date : UTC 2013-11-03 17:37:53\n &lt;a href=&quot;\nhttp://imageshack.us/a/img89/4822/zka.gif&quot; rel=&quot;nofollow&quot; target=&quot;_NEW&quot;&gt;\nhttp://imageshack.us/a/img89/4822/zka.gif&lt;/a&gt;\n &lt;a href=&quot;\nhttp://imageshack.us/a/img200/185/tj8.gif&quot; rel=&quot;nofollow&quot; target=&quot;_NEW&quot;&gt;\nhttp://imageshack.us/a/img200/185/tj8.gif&lt;/a&gt;\n &lt;a href=&quot;\nhttp://imageshack.us/a/img593/9603/ua8.gif&quot; rel=&quot;nofollow&quot; target=&quot;_NEW&quot;&gt;\nhttp://imageshack.us/a/img593/9603/ua8.gif&lt;/a&gt;\n &lt;a href=&quot;\nhttp://imageshack.us/a/img707/5608/ysmp.png&quot; rel=&quot;nofollow&quot; target=&quot;_NEW&quot;&gt;\nhttp://imageshack.us/a/img707/5608/ysmp.png&lt;/a&gt;\n &lt;a href=&quot;\nhttp://imageshack.us/a/img42/9563/3nt.gif&quot; rel=&quot;nofollow&quot; target=&quot;_NEW&quot;&gt;\nhttp://imageshack.us/a/img42/9563/3nt.gif&lt;/a&gt;","torrent":{"xt":"urn:btih:d2d0cb20756c0ddbb5dfffa3bb0dc1ab8a82f34e","amp;dn":"Comedy+Nights+with+Kapil+-+Hrithik+Roshan+-+3rd+November+HQ+360p","amp;tr":["udp%3A%2F%2Ftracker.openbittorrent.com%3A80","udp%3A%2F%2Fopen.demonii.com%3A1337","udp%3A%2F%2Ftracker.coppersurfer.tk%3A6969","udp%3A%2F%2Fexodus.desync.com%3A6969"],"infoHash":"d2d0cb20756c0ddbb5dfffa3bb0dc1ab8a82f34e","infoHashBuffer":{"type":"Buffer","data":[210,208,203,32,117,108,13,219,181,223,255,163,187,13,193,171,138,130,243,78]},"announce":[],"urlList":[]}}